<?xml version="1.0" encoding="UTF-8"?>
<svg id="Layer_1" xmlns="http://www.w3.org/2000/svg" viewBox="0 0 601.84 201.2">
    <defs>
        <style>
            .cls-1 {
                fill: #3c91e6;
            }

            .cls-1,
            .cls-2,
            .cls-3,
            .cls-4,
            .cls-5,
            .cls-6,
            .cls-7,
            .cls-8,
            .cls-9,
            .cls-10,
            .cls-11,
            .cls-12,
            .cls-13,
            .cls-14,
            .cls-15,
            .cls-16,
            .cls-17,
            .cls-18,
            .cls-19,
            .cls-20,
            .cls-21,
            .cls-22,
            .cls-23,
            .cls-24,
            .cls-25,
            .cls-26,
            .cls-27,
            .cls-28 {
                stroke-width: 0px;
            }

            .cls-2 {
                opacity: .95;
            }

            .cls-2,
            .cls-3,
            .cls-4,
            .cls-6,
            .cls-8,
            .cls-9,
            .cls-10,
            .cls-13,
            .cls-14,
            .cls-15,
            .cls-16,
            .cls-18,
            .cls-19,
            .cls-21,
            .cls-22,
            .cls-23,
            .cls-24,
            .cls-25,
            .cls-26,
            .cls-28 {
                isolation: isolate;
            }

            .cls-2,
            .cls-18,
            .cls-19,
            .cls-20,
            .cls-24,
            .cls-25 {
                fill: #0a2456;
            }

            .cls-29 {
                opacity: .07;
            }

            .cls-3,
            .cls-7,
            .cls-13,
            .cls-15,
            .cls-21 {
                fill: #46d8e8;
            }

            .cls-3,
            .cls-9,
            .cls-14,
            .cls-19 {
                opacity: .8;
            }

            .cls-4 {
                opacity: .47;
            }

            .cls-4,
            .cls-6,
            .cls-8,
            .cls-10,
            .cls-11,
            .cls-23 {
                fill: #2091d9;
            }

            .cls-5,
            .cls-9,
            .cls-16,
            .cls-28 {
                fill: #0c2554;
            }

            .cls-6,
            .cls-16 {
                opacity: .9;
            }

            .cls-8,
            .cls-24 {
                opacity: .46;
            }

            .cls-10,
            .cls-22 {
                opacity: .5;
            }

            .cls-12,
            .cls-14,
            .cls-22,
            .cls-26 {
                fill: #134fa3;
            }

            .cls-30 {
                stroke: #fff;
                stroke-miterlimit: 10;
                stroke-width: .18px;
            }

            .cls-30,
            .cls-27 {
                fill: #fff;
            }

            .cls-13,
            .cls-25,
            .cls-28 {
                opacity: .83;
            }

            .cls-15,
            .cls-23 {
                opacity: .29;
            }

            .cls-17 {
                fill: #002954;
            }

            .cls-18 {
                opacity: .7;
            }

            .cls-31 {
                opacity: .91;
            }

            .cls-21 {
                opacity: .71;
            }

            .cls-26 {
                opacity: .88;
            }
        </style>
    </defs>
    <rect class="cls-17" x=".47" y=".32" width="600.07" height="41.22" />
    <g class="cls-31">
        <rect class="cls-12" x="560.05" y=".45" width="40.26" height="40.99" />
        <polygon class="cls-11" points="600.07 .68 560.13 41.17 560.13 .68 600.07 .68" />
        <path class="cls-20"
            d="M580.21,7.7c-7.02,0-12.71,5.69-12.71,12.71s5.69,12.71,12.71,12.71,12.71-5.69,12.71-12.71-5.69-12.71-12.71-12.71ZM580.21,27.21c-3.75,0-6.8-3.04-6.8-6.8s3.04-6.8,6.8-6.8,6.8,3.04,6.8,6.8-3.04,6.8-6.8,6.8Z" />
        <path class="cls-7" d="M590.94.68h9.25v9.25h0c-5.11,0-9.25-4.15-9.25-9.25h0Z" />
        <rect class="cls-12" x="526.23" y=".58" width="29.5" height="29.5" />
        <rect class="cls-11" x="465.93" y=".61" width="60.27" height="14.66" />
        <path class="cls-12" d="M502.1,26.6h57.84v7.35h-62.58v-2.61c0-2.61,2.12-4.74,4.74-4.74Z" />
        <path class="cls-7"
            d="M501.39,18.55c-6.11,0-11.06,4.95-11.06,11.06s4.95,11.06,11.06,11.06,11.06-4.95,11.06-11.06-4.95-11.06-11.06-11.06ZM501.39,35.53c-3.27,0-5.92-2.65-5.92-5.92s2.65-5.92,5.92-5.92,5.92,2.65,5.92,5.92-2.65,5.92-5.92,5.92Z" />
        <path class="cls-5" d="M560.64,40.89h-20.94c0-8.95,7.27-16.22,16.22-16.22h4.72v16.22h0Z" />
        <rect class="cls-7" x="535.03" y=".45" width="25.83" height="26.12" />
        <path class="cls-20"
            d="M536.97,5.66c-7.35,0-13.31,5.96-13.31,13.31s5.96,13.31,13.31,13.31,13.31-5.96,13.31-13.31-5.96-13.31-13.31-13.31ZM536.97,26.09c-3.93,0-7.12-3.19-7.12-7.12s3.19-7.12,7.12-7.12,7.12,3.19,7.12,7.12-3.19,7.12-7.12,7.12Z" />
        <rect class="cls-13" x="403.05" y=".73" width="41.04" height="40.97" />
        <path class="cls-28" d="M444.33,41.54h-19.32c0-8.95,7.27-16.22,16.22-16.22h3.1v16.22h0Z" />
        <path class="cls-26" d="M403.47.45h62.48v10.1h-68.71v-3.88c0-3.44,2.79-6.22,6.22-6.22h0Z" />
        <rect class="cls-14" x="367.5" y="6.14" width="35.66" height="35.66" />
        <path class="cls-2"
            d="M441.03,2.62c-4.09,0-7.4,3.31-7.4,7.4s3.31,7.4,7.4,7.4,7.4-3.31,7.4-7.4-3.31-7.4-7.4-7.4ZM441.03,13.98c-2.19,0-3.96-1.77-3.96-3.96s1.77-3.96,3.96-3.96,3.96,1.77,3.96,3.96-1.77,3.96-3.96,3.96Z" />
        <path class="cls-25"
            d="M407.28,14.97c-7.35,0-13.31,5.96-13.31,13.31s5.96,13.31,13.31,13.31,13.31-5.96,13.31-13.31-5.96-13.31-13.31-13.31ZM407.28,35.4c-3.93,0-7.12-3.19-7.12-7.12s3.19-7.12,7.12-7.12,7.12,3.19,7.12,7.12-3.19,7.12-7.12,7.12Z" />
        <rect class="cls-11" x="371.93" y="7.04" width="6.99" height="34.69" />
        <path class="cls-16" d="M385.25,13.47h3.91v28.27h-10.99v-21.19c0-3.91,3.17-7.08,7.08-7.08Z" />
        <rect class="cls-11" x="388.82" y="24.62" width="5.65" height="16.68" />
        <rect class="cls-3" x="326.83" y=".43" width="40.52" height="41.14" />
        <path class="cls-11"
            d="M366.2,28.31c-3.47,0-6.29,2.82-6.29,6.29s2.82,6.29,6.29,6.29,6.29-2.82,6.29-6.29-2.82-6.29-6.29-6.29ZM366.2,37.94c-1.84,0-3.34-1.49-3.34-3.34s1.49-3.34,3.34-3.34,3.34,1.49,3.34,3.34-1.49,3.34-3.34,3.34Z" />
        <rect class="cls-22" x="248.46" y=".53" width="78.61" height="40.82" />
        <path class="cls-9" d="M352.59,41.38h-19.32c0-8.95,7.27-16.22,16.22-16.22h3.1v16.22h0Z" />
        <polygon class="cls-12"
            points="486.58 15.36 478.3 15.36 474.15 22.53 478.3 29.71 486.58 29.71 490.72 22.53 486.58 15.36" />
        <polygon class="cls-12"
            points="289.05 26.43 280.76 26.43 276.62 33.6 280.76 40.78 289.05 40.78 293.19 33.6 289.05 26.43" />
        <rect class="cls-12" x="274.24" y="14.14" width="31.97" height="9" />
        <polygon class="cls-4" points="293.05 .68 248.16 41.25 248.16 .68 293.05 .68" />
        <polygon class="cls-21"
            points="348.46 4.48 342.39 4.48 339.36 9.74 342.39 14.99 348.46 14.99 351.49 9.74 348.46 4.48" />
        <polygon class="cls-24" points="267.56 40.52 245.63 27.86 267.56 15.19 267.56 40.52" />
        <rect class="cls-20" x="286.25" y="16.75" width="24.37" height="8.42" />
        <path class="cls-18"
            d="M320.15.68c-9.7,0-17.57,7.87-17.57,17.57s7.87,17.57,17.57,17.57,17.57-7.87,17.57-17.57-7.87-17.57-17.57-17.57ZM320.15,27.57c-5.15,0-9.32-4.17-9.32-9.32s4.17-9.32,9.32-9.32,9.32,4.17,9.32,9.32-4.17,9.32-9.32,9.32Z" />
        <circle class="cls-7" cx="283.56" cy="20.97" r="6.94" />
        <path class="cls-7" d="M248.52.71h12.57v11.22h-3.31c-5.11,0-9.25-4.15-9.25-9.25V.71h-.01Z" />
        <path class="cls-10"
            d="M300.13,16.14c-6.37,0-11.54,5.17-11.54,11.54s5.17,11.54,11.54,11.54,11.54-5.17,11.54-11.54-5.17-11.54-11.54-11.54ZM300.13,33.81c-3.38,0-6.12-2.74-6.12-6.12s2.74-6.12,6.12-6.12,6.12,2.74,6.12,6.12-2.74,6.12-6.12,6.12Z" />
        <polygon class="cls-6" points="446.01 21.09 462.99 4.11 462.99 41.47 446.01 41.47 446.01 21.09" />
        <polygon class="cls-7" points="483.47 41.62 457.49 41.61 469.85 19.5 483.47 41.62" />
        <polygon class="cls-12"
            points="334.48 35.16 330.91 35.16 329.13 38.24 330.91 41.33 334.48 41.33 336.26 38.24 334.48 35.16" />
        <rect class="cls-11" x="342.03" y=".24" width="25.23" height="6.17" />
        <polygon class="cls-19" points="367.51 27.03 345.57 14.37 367.51 1.71 367.51 27.03" />
        <circle class="cls-15" cx="226.32" cy="6.94" r="6.94" />
        <path class="cls-23"
            d="M218.28,9.26c-6.37,0-11.54,5.17-11.54,11.54s5.17,11.54,11.54,11.54,11.54-5.17,11.54-11.54-5.17-11.54-11.54-11.54ZM218.28,26.92c-3.38,0-6.12-2.74-6.12-6.12s2.74-6.12,6.12-6.12,6.12,2.74,6.12,6.12-2.74,6.12-6.12,6.12Z" />
        <path class="cls-5" d="M247.89,41.33h-19.32c0-8.95,7.27-16.22,16.22-16.22h3.1v16.22h0Z" />
        <path class="cls-8"
            d="M245.11,9.49c-8.2,0-14.85,6.65-14.85,14.85s6.65,14.85,14.85,14.85,14.85-6.65,14.85-14.85-6.65-14.85-14.85-14.85ZM245.11,32.23c-4.35,0-7.88-3.53-7.88-7.88s3.53-7.88,7.88-7.88,7.88,3.53,7.88,7.88-3.53,7.88-7.88,7.88Z" />
    </g>
    <rect class="cls-17" y="171.61" width="600.43" height="28.7" />
    <path class="cls-27" d="M266.28,182.05v5.6h-.43v-5.6h.43Z" />
    <path class="cls-27" d="M269.05,182.45h-1.88v-.4h4.21v.4h-1.89v5.2h-.44v-5.2h0Z" />
    <path class="cls-27"
        d="M274.33,186.14c.17.74.66,1.18,1.58,1.18,1.02,0,1.42-.51,1.42-1.12s-.28-1.02-1.51-1.33c-1.18-.3-1.7-.68-1.7-1.49,0-.74.54-1.42,1.74-1.42s1.75.75,1.82,1.43h-.45c-.13-.6-.52-1.03-1.4-1.03-.81,0-1.25.38-1.25,1s.37.86,1.4,1.11c1.58.39,1.81,1.02,1.81,1.7,0,.82-.6,1.54-1.89,1.54-1.4,0-1.91-.82-2.01-1.57h.45,0Z" />
    <path class="cls-27"
        d="M279.28,182.05v3.39c0,1.49.84,1.87,1.63,1.87.94,0,1.63-.39,1.63-1.87v-3.39h.44v3.37c0,1.75-.93,2.29-2.09,2.29s-2.06-.6-2.06-2.22v-3.44h.45,0Z" />
    <path class="cls-27"
        d="M284.55,182.05h2c1.02,0,1.73.57,1.73,1.56s-.7,1.6-1.78,1.6h-1.5v2.44h-.44v-5.6h-.01ZM284.99,184.81h1.54c.9,0,1.28-.48,1.28-1.18,0-.75-.5-1.18-1.25-1.18h-1.58v2.36h0Z" />
    <path class="cls-27"
        d="M289.41,182.05h2c1.02,0,1.73.57,1.73,1.56s-.7,1.6-1.78,1.6h-1.5v2.44h-.44v-5.6h-.01ZM289.85,184.81h1.54c.9,0,1.28-.48,1.28-1.18,0-.75-.5-1.18-1.25-1.18h-1.58v2.36h0Z" />
    <path class="cls-27"
        d="M299.06,184.81c0,1.53-.82,2.92-2.54,2.92-1.58,0-2.5-1.27-2.5-2.88s.89-2.88,2.55-2.88c1.54,0,2.49,1.21,2.49,2.84h0ZM294.49,184.82c0,1.29.71,2.5,2.06,2.5,1.45,0,2.05-1.18,2.05-2.51s-.69-2.45-2.04-2.45c-1.44,0-2.07,1.19-2.07,2.46h0Z" />
    <path class="cls-27"
        d="M300.73,185.03v2.61h-.44v-5.6h2.01c1.1,0,1.69.59,1.69,1.47,0,.71-.42,1.18-1.05,1.31.58.14.96.51.96,1.46v.22c0,.39-.03.92.07,1.14h-.44c-.1-.24-.08-.69-.08-1.17v-.14c0-.92-.27-1.3-1.34-1.3h-1.38ZM300.73,184.63h1.35c.98,0,1.44-.37,1.44-1.1,0-.69-.45-1.08-1.32-1.08h-1.47v2.18h0Z" />
    <path class="cls-27" d="M306.53,182.45h-1.88v-.4h4.21v.4h-1.89v5.2h-.44v-5.2h0Z" />
    <path class="cls-27"
        d="M311.77,182.05h2c1.02,0,1.73.57,1.73,1.56s-.7,1.6-1.78,1.6h-1.5v2.44h-.44v-5.6h-.01ZM312.21,184.81h1.54c.9,0,1.28-.48,1.28-1.18,0-.75-.5-1.18-1.25-1.18h-1.58v2.36h0Z" />
    <path class="cls-27" d="M319.92,184.89h-2.85v2.35h3.13l-.06.4h-3.49v-5.6h3.43v.4h-3v2.05h2.85v.4h-.01Z" />
    <path class="cls-27"
        d="M321.73,185.03v2.61h-.44v-5.6h2.01c1.1,0,1.69.59,1.69,1.47,0,.71-.42,1.18-1.05,1.31.58.14.96.51.96,1.46v.22c0,.39-.03.92.07,1.14h-.44c-.1-.24-.08-.69-.08-1.17v-.14c0-.92-.27-1.3-1.34-1.3h-1.38ZM321.73,184.63h1.35c.98,0,1.44-.37,1.44-1.1,0-.69-.45-1.08-1.32-1.08h-1.47v2.18h0Z" />
    <path class="cls-27" d="M327.53,182.45h-1.88v-.4h4.21v.4h-1.89v5.2h-.44v-5.2h0Z" />
    <path class="cls-27" d="M330.69,182.05h.43v2.44h3.36v-2.44h.43v5.6h-.43v-2.76h-3.36v2.76h-.43v-5.6Z" />
    <path class="cls-27"
        d="M18.64,194.26v.2c-.48.64-.92,1.65-1.08,2.43h-.21c.13-.73.6-1.81,1.07-2.43h-1.44v-.2h1.66Z" />
    <path class="cls-27"
        d="M20.49,194.45h-1.13c-.03.26-.11.76-.14.92.12-.15.31-.26.6-.26.46,0,.78.31.78.87,0,.52-.26.95-.85.95-.44,0-.75-.26-.82-.69h.21c.07.28.27.5.62.5.42,0,.62-.29.62-.75,0-.38-.17-.69-.58-.69-.37,0-.52.15-.64.4l-.2-.06c.08-.35.18-1.08.21-1.39h1.33l-.03.2h.02Z" />
    <path class="cls-27"
        d="M21.2,194.09h.98c.54,0,.82.28.82.69,0,.33-.2.55-.43.61.2.06.53.25.53.69,0,.56-.42.81-.91.81h-.99s0-2.8,0-2.8ZM22.1,195.29c.48,0,.67-.18.67-.5,0-.28-.19-.5-.58-.5h-.78v1h.69ZM21.41,196.69h.79c.37,0,.67-.18.67-.6,0-.36-.23-.6-.79-.6h-.67v1.2h0Z" />
    <path class="cls-27"
        d="M24.75,194.09h.98c.54,0,.82.28.82.69,0,.33-.2.55-.43.61.2.06.53.25.53.69,0,.56-.42.81-.91.81h-.99s0-2.8,0-2.8ZM25.65,195.29c.48,0,.67-.18.67-.5,0-.28-.19-.5-.58-.5h-.78v1h.69ZM24.96,196.69h.79c.37,0,.67-.18.67-.6,0-.36-.23-.6-.79-.6h-.67v1.2h0Z" />
    <path class="cls-27" d="M27.17,195.43v-.54h.2v.45c.12-.3.37-.48.7-.5v.22c-.42.03-.7.32-.7.79v1.04h-.2v-1.46h0Z" />
    <path class="cls-27"
        d="M28.48,195.91c0,.52.26.84.65.84s.5-.21.58-.38h.2c-.08.26-.3.56-.79.56-.61,0-.84-.52-.84-1.03,0-.57.28-1.06.87-1.06.62,0,.81.53.81.91v.16h-1.48ZM29.75,195.74c0-.4-.22-.71-.61-.71-.41,0-.6.29-.64.71h1.25Z" />
    <path class="cls-27"
        d="M30.48,194.89c.3,1.03.47,1.62.5,1.8h0c.03-.16.23-.79.54-1.8h.22c.37,1.24.48,1.59.52,1.75h0c.06-.22.15-.52.52-1.75h.21l-.63,2h-.22c-.22-.71-.48-1.58-.52-1.76h0c-.04.2-.27.91-.53,1.76h-.24l-.59-2h.22Z" />
    <path class="cls-27"
        d="M33.45,195.91c0,.52.26.84.65.84s.5-.21.58-.38h.2c-.08.26-.3.56-.79.56-.61,0-.84-.52-.84-1.03,0-.57.28-1.06.87-1.06.62,0,.81.53.81.91v.16h-1.48ZM34.72,195.74c0-.4-.22-.71-.61-.71-.41,0-.6.29-.64.71h1.25Z" />
    <path class="cls-27" d="M35.42,195.43v-.54h.2v.45c.12-.3.37-.48.7-.5v.22c-.42.03-.7.32-.7.79v1.04h-.2v-1.46h0Z" />
    <path class="cls-27"
        d="M37.75,196.34c.07.26.25.42.57.42.36,0,.5-.16.5-.39s-.1-.34-.54-.45c-.52-.12-.64-.28-.64-.54s.21-.53.66-.53.67.28.7.56h-.2c-.04-.17-.17-.38-.51-.38s-.45.17-.45.33c0,.18.1.28.49.37.56.14.7.32.7.62,0,.36-.3.59-.72.59-.46,0-.71-.24-.77-.6h.21Z" />
    <path class="cls-27"
        d="M39.22,194.89h.37v-.62h.2v.62h.48v.19h-.48v1.3c0,.22.05.35.24.35.06,0,.14,0,.21-.02v.18c-.07.03-.16.04-.25.04-.26,0-.4-.13-.4-.45v-1.39h-.37v-.19h0Z" />
    <path class="cls-27" d="M40.53,197.35c.2-.39.27-.74.28-.97h.2c-.03.33-.16.73-.3.97h-.18Z" />
    <path class="cls-27"
        d="M42.63,194.09h1c.51,0,.86.28.86.78s-.35.8-.89.8h-.75v1.22h-.22v-2.8ZM42.85,195.47h.77c.45,0,.64-.24.64-.59,0-.38-.25-.59-.62-.59h-.79v1.18Z" />
    <path class="cls-27"
        d="M44.96,195.91c0,.52.26.84.65.84s.5-.21.58-.38h.2c-.08.26-.3.56-.79.56-.61,0-.84-.52-.84-1.03,0-.57.28-1.06.87-1.06.62,0,.81.53.81.91v.16h-1.48ZM46.23,195.74c0-.4-.22-.71-.61-.71-.41,0-.6.29-.64.71h1.25Z" />
    <path class="cls-27" d="M46.92,195.43v-.54h.2v.45c.12-.3.37-.48.7-.5v.22c-.42.03-.7.32-.7.79v1.04h-.2v-1.46h0Z" />
    <path class="cls-27"
        d="M48.04,194.89h.37v-.62h.2v.62h.48v.19h-.48v1.3c0,.22.05.35.24.35.06,0,.14,0,.21-.02v.18c-.07.03-.16.04-.25.04-.26,0-.4-.13-.4-.45v-1.39h-.37v-.19h0Z" />
    <path class="cls-27"
        d="M49.69,193.94v1.28c.11-.21.31-.38.66-.38.28,0,.68.14.68.78v1.27h-.2v-1.23c0-.4-.18-.62-.51-.62-.4,0-.62.24-.62.74v1.12h-.2v-2.95h.2-.01Z" />
    <path class="cls-27" d="M51.35,197.35c.2-.39.27-.74.28-.97h.2c-.03.33-.16.73-.3.97,0,0-.18,0-.18,0Z" />
    <path class="cls-27"
        d="M54.69,194.79c-.06-.23-.22-.39-.52-.39-.5,0-.68.47-.7,1.16.1-.22.31-.45.72-.45.53,0,.79.38.79.88s-.27.94-.83.94c-.7,0-.88-.59-.88-1.33s.23-1.4.91-1.4c.51,0,.68.34.72.58h-.21ZM54.77,196.01c0-.32-.13-.7-.59-.7-.37,0-.66.25-.66.71,0,.22.12.74.64.74.45,0,.61-.37.61-.74h0Z" />
    <path class="cls-27"
        d="M57.13,195.55c0,.6-.16,1.38-.86,1.38s-.86-.71-.86-1.36.18-1.36.87-1.36.85.72.85,1.34ZM55.64,195.58c0,.51.11,1.17.63,1.17s.64-.63.64-1.19c0-.5-.1-1.15-.62-1.15s-.65.59-.65,1.17Z" />
    <path class="cls-27"
        d="M59.28,195.55c0,.6-.16,1.38-.86,1.38s-.86-.71-.86-1.36.18-1.36.87-1.36.85.72.85,1.34ZM57.79,195.58c0,.51.11,1.17.63,1.17s.64-.63.64-1.19c0-.5-.1-1.15-.62-1.15s-.65.59-.65,1.17Z" />
    <path class="cls-27"
        d="M61.44,195.55c0,.6-.16,1.38-.86,1.38s-.86-.71-.86-1.36.18-1.36.87-1.36.85.72.85,1.34ZM59.95,195.58c0,.51.11,1.17.63,1.17s.64-.63.64-1.19c0-.5-.1-1.15-.62-1.15s-.65.59-.65,1.17Z" />
    <path class="cls-27" d="M61.66,197.35c.2-.39.27-.74.28-.97h.2c-.03.33-.16.73-.3.97,0,0-.18,0-.18,0Z" />
    <path class="cls-27"
        d="M64.25,196.89l-.78-2.8h.22c.19.67.61,2.22.68,2.55h0c.05-.26.51-1.81.71-2.55h.24c.18.68.63,2.33.68,2.54h0c.09-.4.56-1.88.75-2.54h.22l-.86,2.8h-.25c-.18-.66-.62-2.28-.67-2.52h0c-.07.36-.5,1.82-.7,2.52h-.24Z" />
    <path class="cls-27"
        d="M67.53,195.92l-.36.97h-.22l1.03-2.8h.26l1.07,2.8h-.24l-.36-.97h-1.18ZM68.64,195.72c-.31-.83-.47-1.23-.53-1.42h0c-.07.21-.25.71-.5,1.42h1.03Z" />
    <path class="cls-27" d="M69.57,197.35c.2-.39.27-.74.28-.97h.2c-.03.33-.16.73-.3.97,0,0-.18,0-.18,0Z" />
    <path class="cls-27"
        d="M71.96,195.92l-.36.97h-.22l1.03-2.8h.26l1.07,2.8h-.24l-.36-.97h-1.18ZM73.07,195.72c-.31-.83-.47-1.23-.53-1.42h0c-.07.21-.25.71-.5,1.42h1.03Z" />
    <path class="cls-27"
        d="M75.62,196.31v.58h-.19c0-.05-.01-.18-.01-.35-.08.24-.29.4-.64.4-.29,0-.66-.11-.66-.72v-1.32h.2v1.28c0,.29.09.58.49.58.45,0,.62-.25.62-.82v-1.03h.2v1.42-.02Z" />
    <path class="cls-27"
        d="M76.25,196.34c.07.26.25.42.57.42.36,0,.5-.16.5-.39s-.1-.34-.54-.45c-.52-.12-.64-.28-.64-.54s.21-.53.66-.53.67.28.7.56h-.2c-.04-.17-.17-.38-.51-.38s-.45.17-.45.33c0,.18.1.28.49.37.56.14.7.32.7.62,0,.36-.3.59-.72.59-.46,0-.71-.24-.77-.6h.21Z" />
    <path class="cls-27"
        d="M77.72,194.89h.37v-.62h.2v.62h.48v.19h-.48v1.3c0,.22.05.35.24.35.06,0,.14,0,.21-.02v.18c-.07.03-.16.04-.25.04-.26,0-.4-.13-.4-.45v-1.39h-.37v-.19h0Z" />
    <path class="cls-27" d="M79.14,195.43v-.54h.2v.45c.12-.3.37-.48.7-.5v.22c-.42.03-.7.32-.7.79v1.04h-.2v-1.46h0Z" />
    <path class="cls-27"
        d="M81.74,196.51c0,.18.02.32.03.38h-.19s-.03-.14-.04-.31c-.07.15-.24.36-.66.36-.46,0-.66-.3-.66-.6,0-.44.34-.64.94-.64h.38v-.2c0-.2-.06-.47-.52-.47-.4,0-.46.21-.51.38h-.2c.02-.22.16-.56.71-.56.46,0,.71.19.71.63v1.04h.01ZM81.54,195.87h-.39c-.44,0-.72.12-.72.46,0,.25.18.42.46.42.57,0,.65-.38.65-.81v-.07Z" />
    <path class="cls-27" d="M82.4,196.89v-2.95h.2v2.95h-.2Z" />
    <path class="cls-27" d="M83.25,193.94h.2v.39h-.2v-.39ZM83.25,194.89h.2v2h-.2v-2Z" />
    <path class="cls-27"
        d="M85.45,196.51c0,.18.02.32.03.38h-.19s-.03-.14-.04-.31c-.07.15-.24.36-.66.36-.46,0-.66-.3-.66-.6,0-.44.34-.64.94-.64h.38v-.2c0-.2-.06-.47-.52-.47-.4,0-.46.21-.51.38h-.2c.02-.22.16-.56.71-.56.46,0,.71.19.71.63v1.04h.01ZM85.25,195.87h-.39c-.44,0-.72.12-.72.46,0,.25.18.42.46.42.57,0,.65-.38.65-.81v-.07Z" />
    <path class="cls-27"
        d="M14.36,193.95c.04-.16.06-.33.06-.5,0-1.16-.97-2.1-2.17-2.1s-2.17.94-2.17,2.1c0,.17.02.33.06.5.06.34.14.62.24.82.21.43,1.11,1.87,1.52,2.52-.56.07-.81.3-.81.52,0,.26.36.54,1.16.54s1.16-.28,1.16-.54c0-.22-.26-.45-.81-.52.41-.65,1.31-2.09,1.52-2.52.1-.2.18-.48.24-.82ZM13.08,197.81c-.02.06-.3.22-.83.22s-.81-.16-.83-.21c.02-.05.24-.19.68-.21,0,0,0,0,.01.02.03.05.08.08.14.08s.11-.03.14-.08v-.02c.44.03.66.16.68.21h.01ZM10.69,194.62c-.08-.17-.16-.43-.21-.74h0c-.04-.15-.05-.29-.05-.44,0-.98.82-1.78,1.83-1.78s1.83.8,1.83,1.78c0,.14-.02.29-.05.43h0c-.05.32-.12.58-.21.75-.22.44-1.2,2-1.57,2.59-.37-.59-1.35-2.15-1.57-2.59Z" />
    <path class="cls-27"
        d="M12.25,192.26c-.64,0-1.16.51-1.16,1.13s.52,1.13,1.16,1.13,1.16-.51,1.16-1.13-.52-1.13-1.16-1.13ZM11.43,193.39c0-.44.37-.8.83-.8s.83.36.83.8-.37.8-.83.8-.83-.36-.83-.8Z" />
    <path class="cls-27"
        d="M14.75,186.17c.14,0,.26-.12.26-.26,0-1.47-1.2-2.67-2.67-2.67-.14,0-.26.12-.26.26s.12.26.26.26c1.19,0,2.16.97,2.16,2.16,0,.14.12.26.26.26h0ZM12.34,183.59s-.09-.04-.09-.09.04-.09.09-.09c1.38,0,2.51,1.13,2.51,2.51,0,.05-.04.09-.09.09s-.09-.04-.09-.09c0-1.28-1.04-2.32-2.32-2.32h-.01Z" />
    <path class="cls-27"
        d="M12.31,184.1c-.14,0-.26.12-.26.26s.12.26.26.26c.73,0,1.32.59,1.32,1.32,0,.14.12.26.26.26s.26-.12.26-.26c0-1.01-.82-1.84-1.84-1.84ZM13.89,186.04s-.09-.04-.09-.09c0-.82-.67-1.49-1.49-1.49-.05,0-.09-.04-.09-.09s.04-.09.09-.09c.92,0,1.68.75,1.68,1.68,0,.05-.04.09-.09.09h0Z" />
    <path class="cls-27"
        d="M13.32,188.88h.12c.22,0,.43-.05.6-.16.08-.05.15-.1.21-.17l.16-.18c.32-.36.3-.91-.06-1.24l-.28-.25c-.16-.15-.37-.23-.59-.23-.25,0-.48.11-.65.29l-.16.18c-.06.07-.11.15-.15.23-.64-.27-1.17-.76-1.5-1.38.12-.05.22-.12.31-.22l.16-.18c.16-.17.24-.4.23-.63-.01-.23-.11-.45-.29-.61l-.28-.25c-.16-.15-.37-.23-.59-.23-.25,0-.49.11-.65.29l-.16.18s-.04.05-.06.08c-.18.16-.33.52-.24.96.36,1.89,1.96,3.33,3.88,3.51h0ZM9.85,184.59h.01v-.03s.03-.04.05-.06l.16-.18c.12-.13.29-.21.47-.21.16,0,.31.06.42.16l.28.25c.13.11.2.27.21.44,0,.17-.05.33-.16.46l-.16.18h0c-.08.09-.18.15-.29.18l-.05.02s-.06.04-.08.07c-.01.03-.01.07,0,.1l.02.05c.37.73.99,1.3,1.75,1.6l.04.02s.07,0,.1,0,.05-.04.06-.07v-.04c.04-.08.09-.16.15-.22l.16-.18c.12-.13.29-.21.47-.21.16,0,.31.06.42.16l.28.25c.26.23.28.64.04.89l-.16.18s-.1.09-.16.13c-.16.1-.36.14-.57.12-1.81-.16-3.32-1.52-3.66-3.31-.07-.37.06-.64.17-.73l.03-.02Z" />
    <path class="cls-27"
        d="M11.84,179.86h.31c1.72-.07,3.06-1.49,3.06-3.24s-1.35-3.17-3.06-3.24h-.3c-1.7.09-3.03,1.51-3.03,3.24s1.33,3.15,3.03,3.24h-.01ZM9.91,178.71c.2-.15.42-.28.65-.38.22.47.53.88.91,1.23-.59-.11-1.14-.41-1.57-.85h.01ZM11.89,179.58c-.47-.36-.85-.82-1.1-1.34.35-.13.72-.2,1.1-.22v1.56ZM11.89,177.77c-.41.02-.81.1-1.2.24-.15-.37-.23-.76-.26-1.16h1.45v.92h.01ZM11.89,176.6h-1.46c0-.41.07-.81.2-1.2.4.16.83.25,1.26.27v.93ZM12.51,179.57c.4-.36.72-.79.94-1.28.25.1.49.23.7.39-.44.47-1.02.78-1.65.89h.01ZM14.32,178.49c-.24-.17-.5-.32-.77-.43.15-.38.23-.79.26-1.21h1.16c-.05.6-.27,1.17-.64,1.64h0ZM14.41,174.87c.36.51.55,1.1.56,1.72h-1.16c0-.43-.07-.85-.2-1.25.29-.13.56-.29.8-.48h0ZM14.26,174.67c-.23.18-.48.32-.74.44-.22-.55-.57-1.05-1.01-1.45.68.12,1.3.47,1.75,1.01ZM12.14,173.68c.52.4.91.93,1.15,1.53-.37.13-.76.21-1.15.22v-1.74h0ZM12.14,175.67c.42,0,.84-.09,1.24-.23.12.37.18.76.19,1.16h-1.43v-.93h0ZM12.14,176.85h1.42c-.02.39-.1.76-.24,1.12-.38-.13-.77-.2-1.18-.21v-.92h0ZM12.14,178.02c.37,0,.73.07,1.08.19-.24.52-.62.99-1.08,1.35v-1.54h0ZM11.89,173.65v1.76c-.4-.02-.8-.1-1.17-.25.25-.59.65-1.11,1.17-1.51ZM11.48,173.67c-.43.39-.76.86-.98,1.39-.24-.12-.47-.26-.69-.43.44-.5,1.03-.84,1.67-.96ZM9.65,174.83c.23.19.49.34.75.47-.14.42-.22.85-.22,1.3h-1.12c0-.64.21-1.26.59-1.77ZM9.07,176.85h1.12c.02.43.12.86.27,1.25-.26.11-.5.26-.72.42-.39-.48-.63-1.06-.67-1.68h0Z" />
    <path class="cls-27"
        d="M17.64,184.46c-.36.47-.64,1.05-.64,1.79,0,.68.22,1.29.64,1.83h-.23c-.29-.37-.61-1.01-.61-1.84s.33-1.44.61-1.79h.23Z" />
    <path class="cls-27"
        d="M19.65,186.08c0,.6-.16,1.38-.86,1.38s-.86-.72-.86-1.36.18-1.36.87-1.36.85.72.85,1.34ZM18.16,186.1c0,.51.11,1.17.63,1.17s.64-.63.64-1.19c0-.5-.1-1.15-.62-1.15s-.65.59-.65,1.18h0Z" />
    <path class="cls-27"
        d="M20.07,186.68c0-.4.26-.62.51-.7-.25-.1-.39-.3-.39-.56,0-.38.26-.68.77-.68.46,0,.73.3.73.67,0,.27-.15.48-.39.56.29.09.5.35.5.7,0,.48-.36.79-.87.79s-.85-.32-.85-.78h-.01ZM21.58,186.67c0-.38-.24-.6-.64-.6-.45,0-.65.26-.65.6s.23.6.64.6c.38,0,.65-.22.65-.6ZM20.4,185.4c0,.25.15.48.55.48.37,0,.52-.19.52-.47,0-.25-.16-.49-.53-.49-.4,0-.54.21-.54.48h0Z" />
    <path class="cls-27"
        d="M22.15,188.09c.36-.47.64-1.05.64-1.79,0-.68-.22-1.29-.64-1.83h.23c.29.37.61,1.01.61,1.84s-.33,1.44-.61,1.79h-.23Z" />
    <path class="cls-27"
        d="M24.73,186.89c.09.26.26.38.54.38.6,0,.65-.86.66-1.21-.13.27-.38.38-.68.38-.46,0-.77-.34-.77-.83,0-.46.29-.86.83-.86.6,0,.83.48.83,1.2,0,.66-.12,1.52-.88,1.52-.47,0-.68-.27-.75-.57h.22,0ZM24.69,185.6c0,.38.22.64.57.64.44,0,.62-.23.62-.62,0-.15-.05-.68-.6-.68-.42,0-.6.3-.6.67h0Z" />
    <path class="cls-27"
        d="M26.67,185.38c.04-.32.28-.64.77-.64s.74.32.74.66-.2.5-.37.55h0c.28.09.49.31.49.69,0,.44-.28.82-.86.82-.54,0-.8-.35-.85-.7h.21c.06.27.28.51.66.51.45,0,.63-.3.63-.62,0-.42-.28-.59-.66-.59h-.16v-.18h.12c.4,0,.58-.17.58-.48,0-.28-.19-.47-.53-.47s-.5.18-.56.45h-.21Z" />
    <path class="cls-27"
        d="M28.68,187.41h0c0-.34.28-.75.8-1.16.46-.36.57-.46.57-.8,0-.29-.16-.54-.54-.54-.36,0-.55.17-.62.56h-.2c.05-.44.33-.75.82-.75.53,0,.76.36.76.72,0,.41-.17.54-.66.94-.39.32-.62.57-.7.82h1.47l-.04.2h-1.67.01Z" />
    <path class="cls-27"
        d="M32.29,184.98h-1.13c-.03.26-.11.75-.14.92.12-.15.31-.26.6-.26.46,0,.78.31.78.87,0,.52-.26.95-.85.95-.44,0-.75-.26-.82-.69h.21c.07.28.27.5.62.5.42,0,.62-.29.62-.75,0-.38-.17-.69-.58-.69-.37,0-.52.15-.64.4l-.2-.06c.08-.35.18-1.08.21-1.4h1.33l-.03.2h.02Z" />
    <path class="cls-27" d="M34.38,187.41v-2.38c-.14.12-.44.27-.59.31v-.19c.17-.06.43-.22.63-.39h.17v2.65h-.21Z" />
    <path class="cls-27" d="M35.71,187.41v-2.38c-.14.12-.44.27-.59.31v-.19c.17-.06.43-.22.63-.39h.17v2.65h-.21Z" />
    <path class="cls-27"
        d="M36.81,186.89c.09.26.26.38.54.38.6,0,.65-.86.66-1.21-.13.27-.38.38-.68.38-.46,0-.77-.34-.77-.83,0-.46.29-.86.83-.86.6,0,.83.48.83,1.2,0,.66-.12,1.52-.88,1.52-.47,0-.68-.27-.75-.57h.22,0ZM36.77,185.6c0,.38.22.64.57.64.44,0,.62-.23.62-.62,0-.15-.05-.68-.6-.68-.42,0-.6.3-.6.67h0Z" />
    <path class="cls-27"
        d="M40.07,185.31c-.06-.23-.22-.39-.52-.39-.5,0-.68.47-.7,1.16.1-.22.31-.45.72-.45.53,0,.79.38.79.88s-.27.94-.83.94c-.7,0-.88-.59-.88-1.33s.23-1.4.91-1.4c.51,0,.68.34.72.58h-.21ZM40.15,186.53c0-.32-.13-.7-.59-.7-.37,0-.66.25-.66.71,0,.22.12.74.64.74.45,0,.61-.37.61-.74h0Z" />
    <path class="cls-27" d="M17.08,175.67v2.8h-.22v-2.8h.22Z" />
    <path class="cls-27"
        d="M17.5,176.47h.37v-.62h.2v.62h.48v.19h-.48v1.3c0,.22.05.35.24.35.06,0,.14,0,.21-.02v.18c-.07.03-.16.04-.25.04-.26,0-.4-.13-.4-.45v-1.39h-.37v-.19h0Z" />
    <path class="cls-27"
        d="M19.03,177.91c.07.26.25.42.57.42.36,0,.5-.16.5-.39s-.1-.34-.54-.45c-.52-.12-.64-.28-.64-.54s.21-.53.66-.53.67.28.7.56h-.2c-.04-.17-.17-.38-.51-.38s-.45.17-.45.33c0,.18.1.28.49.37.56.14.7.32.7.62,0,.36-.3.59-.72.59-.46,0-.71-.24-.77-.6h.21Z" />
    <path class="cls-27"
        d="M22.25,177.88v.58h-.19c0-.05,0-.18,0-.35-.08.24-.29.4-.64.4-.29,0-.66-.11-.66-.72v-1.32h.2v1.28c0,.29.09.58.49.58.45,0,.62-.25.62-.82v-1.03h.2v1.42-.02Z" />
    <path class="cls-27"
        d="M23.11,178.17v1.1h-.2v-2.8h.2v.36c.12-.24.34-.41.7-.41.47,0,.8.4.8,1,0,.72-.38,1.1-.87,1.1-.35,0-.54-.16-.64-.34h0ZM24.4,177.42c0-.46-.22-.81-.62-.81-.48,0-.68.3-.68.85s.16.87.66.87c.42,0,.65-.35.65-.9h-.01Z" />
    <path class="cls-27"
        d="M25.31,178.17v1.1h-.2v-2.8h.2v.36c.12-.24.34-.41.7-.41.47,0,.8.4.8,1,0,.72-.38,1.1-.87,1.1-.35,0-.54-.16-.64-.34h0ZM26.6,177.42c0-.46-.22-.81-.62-.81-.48,0-.68.3-.68.85s.16.87.66.87c.42,0,.65-.35.65-.9h-.01Z" />
    <path class="cls-27"
        d="M28.96,177.46c0,.56-.31,1.05-.9,1.05-.54,0-.88-.44-.88-1.05,0-.57.32-1.05.9-1.05.53,0,.88.42.88,1.04h0ZM27.39,177.47c0,.48.26.86.68.86s.68-.36.68-.86c0-.47-.24-.86-.68-.86s-.67.38-.67.86h-.01Z" />
    <path class="cls-27" d="M29.46,177.01v-.54h.2v.45c.12-.3.37-.48.7-.5v.22c-.42.03-.7.32-.7.79v1.04h-.2v-1.46h0Z" />
    <path class="cls-27"
        d="M30.58,176.47h.37v-.62h.2v.62h.48v.19h-.48v1.3c0,.22.05.35.24.35.06,0,.14,0,.21-.02v.18c-.07.03-.16.04-.25.04-.26,0-.4-.13-.4-.45v-1.39h-.37v-.19h0Z" />
    <path class="cls-27"
        d="M32.22,175.52v1.28c.11-.21.31-.38.66-.38.28,0,.68.14.68.78v1.27h-.2v-1.23c0-.4-.18-.62-.51-.62-.4,0-.62.24-.62.74v1.12h-.2v-2.95h.2-.01Z" />
    <path class="cls-27"
        d="M34.41,178.17v1.1h-.2v-2.8h.2v.36c.12-.24.34-.41.7-.41.47,0,.8.4.8,1,0,.72-.38,1.1-.87,1.1-.35,0-.54-.16-.64-.34h0ZM35.7,177.42c0-.46-.22-.81-.62-.81-.48,0-.68.3-.68.85s.16.87.66.87c.42,0,.65-.35.65-.9h-.01Z" />
    <path class="cls-27"
        d="M36.48,177.49c0,.52.26.84.65.84s.5-.21.58-.38h.2c-.08.26-.3.56-.79.56-.61,0-.84-.52-.84-1.03,0-.57.28-1.06.87-1.06.62,0,.81.53.81.91v.16h-1.48ZM37.75,177.31c0-.4-.22-.71-.61-.71-.41,0-.6.29-.64.71h1.26,0Z" />
    <path class="cls-27" d="M38.45,177.01v-.54h.2v.45c.12-.3.37-.48.7-.5v.22c-.42.03-.7.32-.7.79v1.04h-.2v-1.46h0Z" />
    <path class="cls-27"
        d="M39.57,176.47h.37v-.62h.2v.62h.48v.19h-.48v1.3c0,.22.05.35.24.35.06,0,.14,0,.21-.02v.18c-.07.03-.16.04-.25.04-.26,0-.4-.13-.4-.45v-1.39h-.37v-.19h0Z" />
    <path class="cls-27"
        d="M41.21,175.52v1.28c.11-.21.31-.38.66-.38.28,0,.68.14.68.78v1.27h-.2v-1.23c0-.4-.18-.62-.51-.62-.4,0-.62.24-.62.74v1.12h-.2v-2.95h.2-.01Z" />
    <path class="cls-27" d="M43.06,178.47v-.52h.2v.52h-.2Z" />
    <path class="cls-27"
        d="M43.81,176.97v-.5h.2c0,.06,0,.32,0,.38.09-.2.25-.43.66-.43.36,0,.67.2.67.75v1.29h-.2v-1.26c0-.36-.15-.59-.5-.59-.48,0-.64.4-.64.83v1.02h-.2v-1.5h0Z" />
    <path class="cls-27"
        d="M46.04,177.49c0,.52.26.84.65.84s.5-.21.58-.38h.2c-.08.26-.3.56-.79.56-.61,0-.84-.52-.84-1.03,0-.57.28-1.06.87-1.06.62,0,.81.53.81.91v.16h-1.48ZM47.31,177.31c0-.4-.22-.71-.61-.71-.41,0-.6.29-.64.71h1.26-.01Z" />
    <path class="cls-27"
        d="M47.74,176.47h.37v-.62h.2v.62h.48v.19h-.48v1.3c0,.22.05.35.24.35.06,0,.14,0,.21-.02v.18c-.07.03-.16.04-.25.04-.26,0-.4-.13-.4-.45v-1.39h-.37v-.19h0Z" />
    <path class="cls-27" d="M49.19,178.47v-.52h.2v.52h-.2Z" />
    <path class="cls-27"
        d="M51.33,178.09c0,.18.02.32.03.38h-.19s-.03-.14-.04-.31c-.07.15-.24.36-.66.36-.46,0-.66-.3-.66-.6,0-.44.34-.64.94-.64h.38v-.2c0-.2-.06-.47-.52-.47-.4,0-.46.21-.51.38h-.2c.02-.22.16-.56.71-.56.46,0,.71.19.71.63v1.04h.01ZM51.13,177.45h-.39c-.44,0-.72.12-.72.46,0,.25.18.42.46.42.57,0,.65-.38.65-.81v-.07Z" />
    <path class="cls-27"
        d="M53.46,177.88v.58h-.19c0-.05-.01-.18-.01-.35-.08.24-.29.4-.64.4-.29,0-.66-.11-.66-.72v-1.32h.2v1.28c0,.29.09.58.49.58.45,0,.62-.25.62-.82v-1.03h.2v1.42-.02Z" />
    <g class="cls-29">
        <rect class="cls-12" x="353.38" y="174.66" width="25.5" height="25.96" />
        <polygon class="cls-11" points="408.32 173.81 383.03 199.45 383.03 173.81 408.32 173.81" />
        <path class="cls-20"
            d="M288.83,174.13c-6.6,0-11.95,5.48-11.95,12.23s5.35,12.23,11.95,12.23,11.95-5.48,11.95-12.23-5.35-12.23-11.95-12.23ZM288.83,192.9c-3.53,0-6.39-2.93-6.39-6.54s2.86-6.54,6.39-6.54,6.39,2.93,6.39,6.54-2.86,6.54-6.39,6.54Z" />
        <path class="cls-7" d="M391.38,174.61h5.86v5.86h-.94c-2.72,0-4.92-2.21-4.92-4.92v-.94h0Z" />
        <rect class="cls-12" x="267.78" y="181.4" width="18.68" height="18.68" />
        <rect class="cls-11" x="326.7" y="191.05" width="38.17" height="9.29" />
        <path class="cls-12" d="M248.43,175.92h35.72v4.65h-39.63v-.74c0-2.16,1.75-3.91,3.91-3.91h0Z" />
        <path class="cls-7"
            d="M113.98,185.74c-3.87,0-7,3.14-7,7s3.14,7,7,7,7-3.14,7-7-3.14-7-7-7ZM113.98,196.49c-2.07,0-3.75-1.68-3.75-3.75s1.68-3.75,3.75-3.75,3.75,1.68,3.75,3.75-1.68,3.75-3.75,3.75Z" />
        <rect class="cls-7" x="326.56" y="178.98" width="16.36" height="16.54" />
        <path class="cls-20"
            d="M254.19,183.07c-4.66,0-8.43,3.77-8.43,8.43s3.77,8.43,8.43,8.43,8.43-3.77,8.43-8.43-3.77-8.43-8.43-8.43ZM254.19,196.01c-2.49,0-4.51-2.02-4.51-4.51s2.02-4.51,4.51-4.51,4.51,2.02,4.51,4.51-2.02,4.51-4.51,4.51Z" />
        <rect class="cls-7" x="61.75" y="173.84" width="25.99" height="25.84" />
        <path class="cls-5" d="M133.35,183.49h-12.23v-1.64c0-4.76,3.87-8.63,8.63-8.63h3.61v10.27h-.01Z" />
        <path class="cls-12" d="M307.87,174.33h38.13v6.4h-43.51v-1.02c0-2.97,2.41-5.38,5.38-5.38h0Z" />
        <rect class="cls-12" x="296.62" y="176.93" width="22.58" height="22.58" />
        <path class="cls-20"
            d="M315.31,176.37c-4.64,0-8.4,3.76-8.4,8.4s3.76,8.4,8.4,8.4,8.4-3.76,8.4-8.4-3.76-8.4-8.4-8.4ZM315.31,189.26c-2.48,0-4.49-2.01-4.49-4.49s2.01-4.49,4.49-4.49,4.49,2.01,4.49,4.49-2.01,4.49-4.49,4.49Z" />
        <rect class="cls-11" x="312.73" y="176.17" width="4.43" height="21.97" />
        <path class="cls-5" d="M119,181.55h1.11v17.9h-6.96v-12.06c0-3.23,2.62-5.85,5.85-5.85h0Z" />
        <rect class="cls-11" x="379.55" y="187.88" width="3.58" height="10.57" />
        <rect class="cls-7" x="155.48" y="173.98" width="25.66" height="26.05" />
        <path class="cls-11"
            d="M282.17,186.65c-2.2,0-3.98,1.78-3.98,3.98s1.78,3.98,3.98,3.98,3.98-1.78,3.98-3.98-1.78-3.98-3.98-3.98ZM282.17,192.75c-1.17,0-2.11-.95-2.11-2.11s.95-2.11,2.11-2.11,2.11.95,2.11,2.11-.95,2.11-2.11,2.11Z" />
        <rect class="cls-12" x="192.64" y="174.71" width="49.78" height="25.85" />
        <path class="cls-5" d="M227,198.92h-12.23v-1.64c0-4.76,3.87-8.63,8.63-8.63h3.61v10.27h-.01Z" />
        <polygon class="cls-12"
            points="139.88 188.29 134.63 188.29 132.01 192.83 134.63 197.38 139.88 197.38 142.5 192.83 139.88 188.29" />
        <polygon class="cls-12"
            points="202.38 186.79 197.14 186.79 194.51 191.33 197.14 195.87 202.38 195.87 205.01 191.33 202.38 186.79" />
        <rect class="cls-12" x="290.77" y="181.33" width="20.25" height="5.7" />
        <polygon class="cls-11" points="288.78 173.66 260.35 199.35 260.35 173.66 288.78 173.66" />
        <polygon class="cls-7"
            points="136.77 179.53 132.93 179.53 131.01 182.85 132.93 186.18 136.77 186.18 138.7 182.85 136.77 179.53" />
        <path class="cls-11"
            d="M53.05,172.89c-5.19,0-9.41,4.21-9.41,9.41s4.21,9.41,9.41,9.41,9.41-4.21,9.41-9.41-4.21-9.41-9.41-9.41ZM53.05,187.29c-2.76,0-4.99-2.23-4.99-4.99s2.23-4.99,4.99-4.99,4.99,2.23,4.99,4.99-2.23,4.99-4.99,4.99Z" />
        <polygon class="cls-20" points="68.06 193.87 54.17 185.85 68.06 177.83 68.06 193.87" />
        <rect class="cls-20" x="230.63" y="192.83" width="15.43" height="5.33" />
        <path class="cls-20"
            d="M93.39,177.8c-6.14,0-11.13,4.98-11.13,11.13s4.98,11.13,11.13,11.13,11.13-4.98,11.13-11.13-4.98-11.13-11.13-11.13ZM93.39,194.83c-3.26,0-5.9-2.64-5.9-5.9s2.64-5.9,5.9-5.9,5.9,2.64,5.9,5.9-2.64,5.9-5.9,5.9Z" />
        <circle class="cls-7" cx="233.5" cy="185.99" r="4.4" transform="translate(-64.68 171.64) rotate(-35.78)" />
        <path class="cls-7" d="M292.44,190.79h7.96v7.11h-1.99c-3.29,0-5.97-2.67-5.97-5.97v-1.14h0Z" />
        <path class="cls-11"
            d="M42.81,185.3c-4.04,0-7.31,3.27-7.31,7.31s3.27,7.31,7.31,7.31,7.31-3.27,7.31-7.31-3.27-7.31-7.31-7.31ZM42.81,196.49c-2.14,0-3.88-1.74-3.88-3.88s1.74-3.88,3.88-3.88,3.88,1.74,3.88,3.88-1.74,3.88-3.88,3.88Z" />
        <polygon class="cls-11" points="321.41 188.29 332.16 177.54 332.16 201.2 321.41 201.2 321.41 188.29" />
        <polygon class="cls-7" points="216.93 183.62 201.75 189.94 203.58 174.01 216.93 183.62" />
        <polygon class="cls-12"
            points="351.87 193.54 349.62 193.54 348.49 195.49 349.62 197.45 351.87 197.45 353 195.49 351.87 193.54" />
        <rect class="cls-11" x="351.99" y="180.18" width="15.97" height="3.91" />
        <polygon class="cls-20" points="155.96 197.81 142.07 189.79 155.96 181.77 155.96 197.81" />
        <path class="cls-20"
            d="M190.3,182.41c-4.66,0-8.43,3.77-8.43,8.43s3.77,8.43,8.43,8.43,8.43-3.77,8.43-8.43-3.77-8.43-8.43-8.43ZM190.3,195.35c-2.49,0-4.51-2.02-4.51-4.51s2.02-4.51,4.51-4.51,4.51,2.02,4.51,4.51-2.02,4.51-4.51,4.51Z" />
        <path class="cls-5" d="M173.98,199.63h-13.26v-1.64c0-4.76,3.87-8.63,8.63-8.63h4.63v10.27h0Z" />
        <path class="cls-20"
            d="M382.36,179.54c-6.05,0-10.95,4.69-10.95,10.47s4.9,10.47,10.95,10.47,10.95-4.69,10.95-10.47-4.9-10.47-10.95-10.47ZM382.36,195.61c-3.23,0-5.86-2.51-5.86-5.6s2.62-5.6,5.86-5.6,5.86,2.51,5.86,5.6-2.62,5.6-5.86,5.6Z" />
        <rect class="cls-12" x="409.49" y="174.59" width="49.78" height="25.85" />
        <path class="cls-20"
            d="M461.98,173.39c-6.05,0-10.95,4.69-10.95,10.47s4.9,10.47,10.95,10.47,10.95-4.69,10.95-10.47-4.9-10.47-10.95-10.47ZM461.98,189.45c-3.23,0-5.86-2.51-5.86-5.6s2.62-5.6,5.86-5.6,5.86,2.51,5.86,5.6-2.62,5.6-5.86,5.6Z" />
        <circle class="cls-7" cx="405.78" cy="193.18" r="4.4" />
        <polygon class="cls-7" points="431 190.48 415.82 196.81 417.65 180.88 431 190.48" />
        <polygon class="cls-12"
            points="445.32 188.13 440.08 188.13 437.45 192.68 440.08 197.22 445.32 197.22 447.95 192.68 445.32 188.13" />
        <polygon class="cls-11" points="507.51 200.14 469.66 194.17 489.65 178.03 507.51 200.14" />
        <path class="cls-5" d="M511.06,198.25h-13.26v-1.64c0-4.76,3.87-8.63,8.63-8.63h4.63v10.27h0Z" />
        <polygon class="cls-7" points="511.89 181.77 502.94 185.5 504.02 176.11 511.89 181.77" />
        <polygon class="cls-12"
            points="528.7 183.63 526.45 183.63 525.32 185.58 526.45 187.54 528.7 187.54 529.83 185.58 528.7 183.63" />
        <path class="cls-20"
            d="M594.11,185.36c-4.27,0-7.73,3.31-7.73,7.4s3.46,7.4,7.73,7.4,7.73-3.31,7.73-7.4-3.46-7.4-7.73-7.4ZM594.11,196.71c-2.28,0-4.14-1.77-4.14-3.96s1.85-3.96,4.14-3.96,4.14,1.77,4.14,3.96-1.85,3.96-4.14,3.96Z" />
        <path class="cls-7" d="M592.35,174.32h7.96v7.11h-1.99c-3.29,0-5.97-2.67-5.97-5.97v-1.14h0Z" />
        <polygon class="cls-7" points="529.45 192.64 514.26 198.97 516.1 183.04 529.45 192.64" />
        <rect class="cls-12" x="549.66" y="174.53" width="25.5" height="25.96" />
        <rect class="cls-7" x="566.53" y="174.26" width="16.36" height="16.54" />
        <path class="cls-7"
            d="M549.11,185.5c-3.87,0-7,3.14-7,7s3.14,7,7,7,7-3.14,7-7-3.14-7-7-7ZM549.11,196.25c-2.07,0-3.75-1.68-3.75-3.75s1.68-3.75,3.75-3.75,3.75,1.68,3.75,3.75-1.68,3.75-3.75,3.75Z" />
    </g>
    <path class="cls-27"
        d="M14.96,27.76H6.42c-.21,0-.42-.05-.6-.15-.87-.49-1.12-1.43-.73-2.19l3.73-7.28h0l.47-.92c.1-.19.24-.36.42-.47.95-.58,2.01-.22,2.44.6l4.13,8.06c.39.76.13,1.7-.73,2.19-.18.1-.39.15-.6.15h0ZM10.23,17.79l-.03.06-4.13,8.06c-.12.24-.02.44.02.52.05.08.19.25.46.25h8.26c.27,0,.41-.18.46-.25s.15-.28.02-.52l-4.13-8.06c-.09-.18-.28-.29-.48-.29-.19,0-.35.09-.45.24h0Z" />
    <path class="cls-27"
        d="M29.84,13.45h-9.62c-.75,0-1.36-.6-1.36-1.34v-6.64c0-.74.61-1.34,1.36-1.34h9.62c.75,0,1.36.6,1.36,1.34v6.64c0,.74-.61,1.34-1.36,1.34ZM20.22,5.21c-.15,0-.26.12-.26.26v6.64c0,.14.12.26.26.26h9.62c.15,0,.26-.12.26-.26v-6.64c0-.14-.12-.26-.26-.26h-9.62Z" />
    <path class="cls-1"
        d="M28.14,16.9h-5.46c-.48,0-.93.25-1.18.67l-1.04,1.69c-.3.49-.3,1.12.02,1.61l3.76,5.75c.56.85,1.76.85,2.32,0l3.79-5.73c.32-.48.33-1.12.03-1.61l-1.05-1.71c-.26-.42-.71-.68-1.19-.68h0Z" />
    <path class="cls-30"
        d="M25.4,27.68h0c-.61,0-1.18-.31-1.51-.83l-3.76-5.75c-.4-.62-.41-1.42-.03-2.05l1.04-1.69c.34-.55.92-.87,1.55-.87h5.46c.63,0,1.21.33,1.55.88l1.05,1.71c.38.63.37,1.44-.04,2.05l-3.79,5.73c-.34.52-.91.82-1.51.82h0ZM22.68,17.32c-.33,0-.64.18-.82.47l-1.04,1.69c-.22.36-.21.82.02,1.17l3.76,5.75c.19.28.48.45.8.45h0c.32,0,.61-.16.8-.44l3.79-5.73c.23-.35.24-.81.02-1.17l-1.05-1.71c-.18-.3-.49-.48-.82-.48h-5.46Z" />
    <ellipse class="cls-1" cx="10.48" cy="8.78" rx="4.19" ry="4.11" />
    <path class="cls-27"
        d="M10.48,13.43c-2.61,0-4.73-2.09-4.73-4.65s2.12-4.65,4.73-4.65,4.73,2.09,4.73,4.65-2.12,4.65-4.73,4.65ZM10.48,5.21c-2.01,0-3.64,1.6-3.64,3.57s1.63,3.57,3.64,3.57,3.64-1.6,3.64-3.57-1.63-3.57-3.64-3.57Z" />
    <path class="cls-27"
        d="M47.66,30.62h-1.72v.4s0,0,0,0c0,0,.36,0,.37,0,0,0,1.36-.01,1.36-.01.65,0,1.07.4,1.07,1.11,0,.67-.32,1.12-1.1,1.12-.62,0-1.48.02-1.55.02-.07,0-.12,0-.16,0,0,0,0,0,0,0h0v2.66h.38v-2.31h1.29c.94,0,1.54-.56,1.54-1.51s-.61-1.48-1.49-1.48Z" />
    <path class="cls-27" d="M59.15,30.98h-1.54v-.38h3.44v.38h-1.54v4.94h-.36v-4.94Z" />
    <path class="cls-27" d="M61.85,30.61h.35v2.32h2.75v-2.32h.35v5.32h-.35v-2.62h-2.75v2.62h-.35v-5.32Z" />
    <rect class="cls-27" x="49.99" y="30.64" width="3.03" height=".38" />
    <rect class="cls-27" x="49.98" y="33.06" width="2.28" height=".38" />
    <rect class="cls-27" x="49.98" y="35.38" width="3.03" height=".38" />
    <path class="cls-27"
        d="M54.29,31h1.27c.75,0,1.14.37,1.14,1.02,0,.7-.39,1.05-1.24,1.05h-1.53s0,0-.01,0v2.86h.38v-2.48h1.18c.92,0,1.16.36,1.16,1.24v.14c0,.45-.02.88.07,1.11h.38c-.09-.2-.06-.7-.06-1.08v-.2c0-.9-.33-1.26-.83-1.39.54-.13.9-.57.9-1.24,0-.83-.5-1.39-1.45-1.39h-1.73s0,.31,0,.37" />
    <path class="cls-27" d="M11.2,30.98h-1.54v-.38h3.44v.38h-1.54v4.94h-.36v-4.94Z" />
    <path class="cls-27" d="M6.63,30.97h-1.54v-.37h3.44v.37h-1.54v4.81h-.36v-4.81Z" />
    <path class="cls-27" d="M6.99,35.55h1.54v.37h-3.44v-.37h1.54v-4.85h.36v4.85Z" />
    <path class="cls-27"
        d="M37.17,30.97h1.29c.76,0,1.15.37,1.15,1.03,0,.7-.4,1.05-1.26,1.05h-1.55s0,0-.01,0v2.87h.38v-2.49h1.2c.94,0,1.18.37,1.18,1.24v.14c0,.46-.02.88.07,1.11h.38c-.09-.21-.06-.71-.06-1.08v-.21c0-.91-.34-1.26-.84-1.39.55-.13.92-.57.92-1.25,0-.84-.51-1.4-1.48-1.4h-1.76s0,.32,0,.38" />
    <path class="cls-27"
        d="M14.61,34.45c.14.69.55,1.1,1.31,1.1.85,0,1.18-.48,1.18-1.04s-.23-.95-1.25-1.23c-.98-.27-1.41-.63-1.41-1.38,0-.68.44-1.32,1.44-1.32s1.45.7,1.51,1.33h-.37c-.11-.56-.43-.96-1.16-.96-.67,0-1.04.35-1.04.93s.31.79,1.16,1.03c1.31.36,1.5.95,1.5,1.57,0,.76-.5,1.43-1.57,1.43-1.16,0-1.59-.76-1.67-1.46h.37Z" />
    <path class="cls-27"
        d="M18.91,30.63v3.17c0,1.39.7,1.75,1.35,1.75.78,0,1.35-.37,1.35-1.75v-3.17h.37v3.15c0,1.64-.77,2.15-1.73,2.15s-1.71-.56-1.71-2.08v-3.21h.37Z" />
    <path class="cls-27"
        d="M35.71,33.14c0,1.41-.7,2.69-2.19,2.69-1.36,0-2.15-1.17-2.15-2.65s.76-2.65,2.2-2.65c1.32,0,2.14,1.11,2.14,2.61ZM31.77,33.15c0,1.18.61,2.3,1.77,2.3,1.25,0,1.77-1.09,1.77-2.31s-.59-2.25-1.76-2.25c-1.24,0-1.78,1.1-1.78,2.26Z" />
    <path class="cls-27" d="M42.1,30.99h-1.56v-.38h3.49v.38h-1.57v4.93h-.37v-4.93Z" />
    <path class="cls-27"
        d="M25.19,30.56h-1.75v.4s0,0,0,0c0,0,.36,0,.38,0,0,0,1.38-.01,1.38-.01.66,0,1.09.4,1.09,1.12,0,.67-.33,1.13-1.12,1.13-.63,0-1.5.02-1.58.02-.07,0-.12,0-.16,0,0,0,0,0,0,0,0,0,0,0,0,0,0,.89,0,1.79,0,2.68h.38v-2.33h1.32c.95,0,1.56-.56,1.56-1.53s-.62-1.49-1.51-1.49Z" />
    <path class="cls-27"
        d="M29.27,30.57h-1.75v.4s0,0,0,0c0,0,.36,0,.38,0,0,0,1.38-.01,1.38-.01.66,0,1.09.4,1.09,1.12,0,.67-.33,1.13-1.12,1.13-.63,0-1.5.02-1.58.02-.07,0-.12,0-.16,0,0,0,0,0,0,0,0,0,0,0,0,0,0,.89,0,1.78,0,2.68h.38v-2.32h1.32c.95,0,1.56-.56,1.56-1.52s-.62-1.49-1.51-1.49Z" />
</svg>