<svg id="Layer_1" xmlns="http://www.w3.org/2000/svg" viewBox="21.625 389.088 343.094 30.152">
    <defs>
        <style>
            .cls-1 {
                fill: #3c91e6;
            }

            .cls-1,
            .cls-2 {
                stroke-width: 0px;
            }

            .cls-3 {
                stroke-width: 1.82px;
            }

            .cls-3,
            .cls-4 {
                stroke: #fff;
                stroke-miterlimit: 10;
            }

            .cls-3,
            .cls-2 {
                fill: #fff;
            }

            .cls-4 {
                fill: #01042b;
                stroke-width: 11.64px;
            }
        </style>
    </defs>
    <path class="cls-2"
        d="M262.57,390.04h-9.66v2.19h.05s1.99-.03,2.07-.03l7.62-.07c3.63,0,6.03,2.21,6.03,6.12,0,3.67-1.82,6.17-6.18,6.17-3.48,0-8.3.1-8.72.1-.37,0-.66,0-.89.01h0s.03.01.03.01v14.67h2.12v-12.72h7.26c5.25,0,8.61-3.09,8.61-8.33s-3.4-8.13-8.35-8.13h0Z"
        style="fill: rgb(0, 0, 0);"></path>
    <path class="cls-2" d="M327.05,392.04h-8.61v-2.09h19.28v2.09h-8.65v27.18h-2.02v-27.18h0Z"
        style="fill: rgb(0, 0, 0);"></path>
    <path class="cls-2" d="M342.16,389.95h1.98v12.75h15.39v-12.75h1.98v29.27h-1.98v-14.42h-15.39v14.42h-1.98v-29.27Z"
        style="fill: rgb(0, 0, 0);"></path>
    <rect class="cls-2" x="275.66" y="390.17" width="16.97" height="2.08" style="fill: rgb(0, 0, 0);"></rect>
    <rect class="cls-2" x="275.62" y="403.45" width="12.77" height="2.08" style="fill: rgb(0, 0, 0);"></rect>
    <rect class="cls-2" x="275.62" y="416.23" width="16.97" height="2.08" style="fill: rgb(0, 0, 0);"></rect>
    <path class="cls-2"
        d="M299.76,392.1h7.11c4.21,0,6.38,2.05,6.38,5.64,0,3.84-2.2,5.76-6.96,5.76h-8.66v15.74h2.12v-13.65h6.64c5.18,0,6.49,2,6.49,6.81v.75c0,2.5-.12,4.84.38,6.09h2.12c-.5-1.13-.35-3.88-.35-5.93v-1.13c0-4.96-1.85-6.93-4.64-7.64,3.01-.71,5.07-3.13,5.07-6.84,0-4.59-2.82-7.68-8.15-7.68h-9.69s0,1.73.01,2.06"
        style="fill: rgb(0, 0, 0);"></path>
    <path class="cls-2" d="M58.12,392.03h-8.61v-2.09h19.28v2.09h-8.65v27.2h-2.02s0-27.2,0-27.2Z"
        style="fill: rgb(0, 0, 0);"></path>
    <path class="cls-2" d="M32.47,391.97h-8.61v-2.04h19.28v2.04h-8.65v26.49h-2.02s0-26.49,0-26.49Z"
        style="fill: rgb(0, 0, 0);"></path>
    <path class="cls-2" d="M34.52,417.16h8.61v2.05h-19.28v-2.05h8.65v-26.7h2.02v26.7Z" style="fill: rgb(0, 0, 0);">
    </path>
    <path class="cls-2"
        d="M203.78,391.95h7.22c4.28,0,6.48,2.06,6.48,5.67,0,3.86-2.24,5.79-7.06,5.79h-8.79v15.82h2.16v-13.72h6.75c5.26,0,6.6,2.01,6.6,6.84v.75c0,2.52-.12,4.86.39,6.12h2.16c-.51-1.14-.35-3.9-.35-5.95v-1.14c0-5-1.88-6.97-4.71-7.67,3.06-.72,5.14-3.14,5.14-6.88,0-4.61-2.86-7.72-8.28-7.72h-9.85s0,1.73.01,2.07"
        style="fill: rgb(0, 0, 0);"></path>
    <path class="cls-2"
        d="M77.26,411.11c.78,3.8,3.1,6.06,7.37,6.06,4.76,0,6.6-2.62,6.6-5.73s-1.3-5.24-7.04-6.78c-5.51-1.51-7.89-3.47-7.89-7.6,0-3.76,2.49-7.27,8.08-7.27s8.15,3.85,8.49,7.32h-2.09c-.59-3.06-2.42-5.27-6.51-5.27-3.76,0-5.81,1.92-5.81,5.11s1.72,4.37,6.51,5.68c7.34,2,8.42,5.24,8.42,8.66,0,4.21-2.79,7.85-8.82,7.85-6.51,0-8.9-4.17-9.38-8.01h2.09-.01Z"
        style="fill: rgb(0, 0, 0);"></path>
    <path class="cls-2"
        d="M101.34,390.07v17.45c0,7.66,3.91,9.63,7.59,9.63,4.36,0,7.59-2.01,7.59-9.63v-17.45h2.05v17.33c0,9.02-4.32,11.82-9.71,11.82s-9.61-3.09-9.61-11.44v-17.7h2.09,0Z"
        style="fill: rgb(0, 0, 0);"></path>
    <path class="cls-2"
        d="M195.6,403.9c0,7.74-3.94,14.79-12.29,14.79-7.62,0-12.06-6.44-12.06-14.59s4.29-14.59,12.32-14.59c7.42,0,12.02,6.12,12.02,14.39h0ZM173.5,403.98c0,6.52,3.44,12.68,9.93,12.68,6.99,0,9.93-6,9.93-12.73s-3.33-12.4-9.85-12.4c-6.96,0-10,6.03-10,12.44h-.01Z"
        style="fill: rgb(0, 0, 0);"></path>
    <path class="cls-2" d="M231.4,392.1h-8.75v-2.08h19.59v2.08h-8.79v27.13h-2.05v-27.13h0Z" style="fill: rgb(0, 0, 0);">
    </path>
    <path class="cls-2"
        d="M136.6,389.71h-9.81v2.21h.05s2.03-.03,2.1-.03l7.73-.07c3.69,0,6.12,2.23,6.12,6.18,0,3.7-1.84,6.22-6.28,6.22-3.52,0-8.44.1-8.86.1-.37,0-.67,0-.9.01h0v.03c0,4.93.02,9.85.03,14.78h2.16v-12.82h7.37c5.33,0,8.75-3.11,8.75-8.4s-3.45-8.2-8.47-8.2h.01Z"
        style="fill: rgb(0, 0, 0);"></path>
    <path class="cls-2"
        d="M159.44,389.76h-9.81v2.21h.05s2.03-.03,2.1-.03l7.73-.07c3.69,0,6.12,2.22,6.12,6.17,0,3.69-1.84,6.2-6.28,6.2-3.52,0-8.44.1-8.86.1-.37,0-.67,0-.9.01h0v.03c0,4.92.02,9.84.03,14.74h2.16v-12.8h7.37c5.33,0,8.75-3.11,8.75-8.39s-3.45-8.18-8.47-8.18h.01Z"
        style="fill: rgb(0, 0, 0);"></path>
</svg>